<?xml version="1.0" standalone="no"?>
<!DOCTYPE svg PUBLIC "-//W3C//DTD SVG 20010904//EN"
 "http://www.w3.org/TR/2001/REC-SVG-20010904/DTD/svg10.dtd">
<svg version="1.0" xmlns="http://www.w3.org/2000/svg"
 width="175.000000pt" height="123.000000pt" viewBox="0 0 175.000000 123.000000"
 preserveAspectRatio="xMidYMid meet">
<metadata>
Created by potrace 1.15, written by Peter Selinger 2001-2017
</metadata>
<g transform="translate(0.000000,123.000000) scale(0.100000,-0.100000)"
fill="#FFFFFF" stroke="none">
<path d="M1198 1158 c-36 -40 -81 -91 -99 -112 -19 -21 -44 -50 -56 -64 l-23
-25 -92 16 c-189 33 -384 68 -422 77 -37 8 -67 4 -65 -9 0 -3 46 -43 102 -88
100 -80 174 -143 228 -193 l28 -25 -266 -235 c-146 -129 -272 -242 -281 -251
-10 -8 -70 -62 -134 -118 -151 -132 -157 -152 -26 -82 40 21 127 66 193 101
66 34 156 82 200 105 44 23 176 93 293 154 116 62 216 111 221 109 10 -4 139
-162 295 -363 60 -77 110 -142 112 -144 2 -2 9 -1 17 2 12 4 9 33 -15 169 -15
89 -35 206 -44 258 -8 52 -22 126 -30 164 -8 38 -11 73 -7 76 13 12 388 170
402 170 7 0 11 6 9 13 -5 13 -47 19 -258 36 -205 17 -190 9 -190 94 0 102 -12
237 -20 237 -4 0 -37 -33 -72 -72z m43 -5 c-10 -27 -44 -117 -76 -201 -32 -84
-63 -151 -69 -149 -5 2 -23 33 -40 70 l-29 67 54 63 c30 34 65 75 79 91 53 62
92 106 96 106 2 0 -5 -21 -15 -47z m-524 -214 c109 -44 237 -96 286 -116 57
-23 87 -41 87 -51 0 -9 -18 -61 -41 -117 l-41 -102 -62 -31 c-33 -17 -117 -61
-186 -97 -373 -198 -649 -339 -621 -318 24 17 282 197 409 285 34 23 130 90
212 148 82 58 179 125 216 150 36 25 75 53 87 62 l22 17 -30 0 c-16 1 -70 -6
-120 -14 -109 -18 -101 -18 -117 -2 -7 7 -40 35 -74 62 -113 93 -234 196 -234
200 0 9 7 6 207 -76z m823 -58 c184 -19 190 -15 -70 -51 -74 -10 -157 -22
-185 -25 -27 -3 -79 -11 -113 -17 l-64 -10 89 -40 c48 -21 91 -42 95 -46 8 -8
109 -595 103 -600 -1 -2 -17 32 -35 75 -64 155 -179 421 -241 560 -11 23 -19
46 -19 50 1 4 38 33 83 64 97 67 100 68 357 40z"/>
</g>
</svg>
